<svg width="21" height="21" viewBox="0 0 21 21" fill="none" xmlns="http://www.w3.org/2000/svg">
<circle cx="10.5" cy="10.5" r="10.5" fill="#FFBF00"/>
<path d="M13 15.6562C13 16.9486 11.8785 18 10.5 18C9.1215 18 8 16.9486 8 15.6562C8 14.3639 9.1215 13.3125 10.5 13.3125C11.8785 13.3125 13 14.3639 13 15.6562ZM8.28938 3.73825L8.71438 11.707C8.73434 12.0812 9.06378 12.375 9.46344 12.375H11.5366C11.9362 12.375 12.2657 12.0812 12.2856 11.707L12.7106 3.73825C12.732 3.33662 12.3905 3 11.9616 3H9.03844C8.6095 3 8.26797 3.33662 8.28938 3.73825Z" fill="white"/>
</svg>
