<svg width="21" height="21" viewBox="0 0 21 21" fill="none" xmlns="http://www.w3.org/2000/svg">
<circle cx="10.5" cy="10.5" r="10.5" fill="#8A2BE2"/>
<path d="M10.5 3C6.35685 3 3 6.35685 3 10.5C3 14.6431 6.35685 18 10.5 18C14.6431 18 18 14.6431 18 10.5C18 6.35685 14.6431 3 10.5 3ZM12.2268 13.5877L9.55948 11.6492C9.46573 11.5796 9.41129 11.4708 9.41129 11.3558V6.26613C9.41129 6.06653 9.5746 5.90323 9.77419 5.90323H11.2258C11.4254 5.90323 11.5887 6.06653 11.5887 6.26613V10.4304L13.5091 11.8276C13.6724 11.9456 13.7056 12.1724 13.5877 12.3357L12.7349 13.5091C12.6169 13.6694 12.3901 13.7056 12.2268 13.5877Z" fill="white"/>
</svg>
