<svg width="21" height="21" viewBox="0 0 21 21" fill="none" xmlns="http://www.w3.org/2000/svg">
<circle cx="10.5" cy="10.5" r="10.5" fill="#2CA0E3"/>
<path d="M17.6285 12.7879L13.3864 10.5L17.6285 8.21212C17.9804 8.02236 18.1047 7.58563 17.9039 7.24424L17.3228 6.25573C17.1221 5.91434 16.6749 5.80166 16.3317 6.00604L12.1932 8.47025L12.2969 3.71818C12.3055 3.32405 11.9825 3 11.5811 3H10.4189C10.0175 3 9.69455 3.32405 9.70317 3.71818L9.8068 8.47025L5.66832 6.00606C5.3251 5.80169 4.87786 5.91437 4.67716 6.25576L4.09607 7.24427C3.89537 7.58566 4.01964 8.02239 4.37149 8.21215L8.61359 10.5L4.37146 12.7879C4.01961 12.9776 3.89534 13.4144 4.09607 13.7558L4.67716 14.7443C4.87786 15.0857 5.3251 15.1983 5.66832 14.994L9.8068 12.5297L9.70314 17.2818C9.69455 17.6759 10.0175 18 10.4189 18H11.5811C11.9825 18 12.3055 17.6759 12.2969 17.2818L12.1932 12.5297L16.3317 14.9939C16.6749 15.1983 17.1221 15.0856 17.3228 14.7442L17.9039 13.7557C18.1046 13.4143 17.9804 12.9776 17.6285 12.7879V12.7879Z" fill="white"/>
</svg>
